<mxfile host="app.diagrams.net" modified="2023-02-08T11:26:42.872Z" agent="5.0 (Windows)" etag="GawJT_abhbDm9a_Wic5k" version="20.8.18" type="github">
  <diagram name="Page-1" id="iLZfClAGpQmFSVFcX-YT">
    <mxGraphModel dx="560" dy="879" grid="1" gridSize="10" guides="1" tooltips="1" connect="1" arrows="1" fold="1" page="1" pageScale="1" pageWidth="850" pageHeight="1100" math="0" shadow="0">
      <root>
        <mxCell id="0" />
        <mxCell id="1" parent="0" />
        <mxCell id="dCxk-X6XOkriSE8L06hu-12" value="" style="edgeStyle=orthogonalEdgeStyle;rounded=0;orthogonalLoop=1;jettySize=auto;html=1;" edge="1" parent="1" source="dCxk-X6XOkriSE8L06hu-3" target="dCxk-X6XOkriSE8L06hu-4">
          <mxGeometry relative="1" as="geometry" />
        </mxCell>
        <mxCell id="dCxk-X6XOkriSE8L06hu-3" value="&lt;div&gt;Inmobiliaria&lt;/div&gt;" style="whiteSpace=wrap;html=1;align=center;" vertex="1" parent="1">
          <mxGeometry x="350" y="400" width="100" height="40" as="geometry" />
        </mxCell>
        <mxCell id="dCxk-X6XOkriSE8L06hu-13" style="edgeStyle=orthogonalEdgeStyle;rounded=0;orthogonalLoop=1;jettySize=auto;html=1;exitX=0.5;exitY=1;exitDx=0;exitDy=0;entryX=0.5;entryY=0;entryDx=0;entryDy=0;" edge="1" parent="1" source="dCxk-X6XOkriSE8L06hu-4" target="dCxk-X6XOkriSE8L06hu-7">
          <mxGeometry relative="1" as="geometry" />
        </mxCell>
        <mxCell id="dCxk-X6XOkriSE8L06hu-14" style="edgeStyle=orthogonalEdgeStyle;rounded=0;orthogonalLoop=1;jettySize=auto;html=1;exitX=0.5;exitY=1;exitDx=0;exitDy=0;entryX=0.5;entryY=0;entryDx=0;entryDy=0;" edge="1" parent="1" source="dCxk-X6XOkriSE8L06hu-4" target="dCxk-X6XOkriSE8L06hu-5">
          <mxGeometry relative="1" as="geometry" />
        </mxCell>
        <mxCell id="dCxk-X6XOkriSE8L06hu-15" style="edgeStyle=orthogonalEdgeStyle;rounded=0;orthogonalLoop=1;jettySize=auto;html=1;exitX=0.5;exitY=1;exitDx=0;exitDy=0;" edge="1" parent="1" source="dCxk-X6XOkriSE8L06hu-4" target="dCxk-X6XOkriSE8L06hu-6">
          <mxGeometry relative="1" as="geometry" />
        </mxCell>
        <mxCell id="dCxk-X6XOkriSE8L06hu-16" style="edgeStyle=orthogonalEdgeStyle;rounded=0;orthogonalLoop=1;jettySize=auto;html=1;exitX=0.5;exitY=1;exitDx=0;exitDy=0;entryX=0.5;entryY=0;entryDx=0;entryDy=0;" edge="1" parent="1" source="dCxk-X6XOkriSE8L06hu-4" target="dCxk-X6XOkriSE8L06hu-11">
          <mxGeometry relative="1" as="geometry" />
        </mxCell>
        <mxCell id="dCxk-X6XOkriSE8L06hu-4" value="&lt;div&gt;Vivienda&lt;/div&gt;" style="whiteSpace=wrap;html=1;align=center;" vertex="1" parent="1">
          <mxGeometry x="350" y="480" width="100" height="40" as="geometry" />
        </mxCell>
        <mxCell id="dCxk-X6XOkriSE8L06hu-5" value="&lt;div&gt;Tipo&lt;/div&gt;" style="whiteSpace=wrap;html=1;align=center;" vertex="1" parent="1">
          <mxGeometry x="150" y="560" width="100" height="40" as="geometry" />
        </mxCell>
        <mxCell id="dCxk-X6XOkriSE8L06hu-6" value="&lt;div&gt;Estado&lt;/div&gt;" style="whiteSpace=wrap;html=1;align=center;" vertex="1" parent="1">
          <mxGeometry x="430" y="560" width="100" height="40" as="geometry" />
        </mxCell>
        <mxCell id="dCxk-X6XOkriSE8L06hu-17" value="" style="edgeStyle=orthogonalEdgeStyle;rounded=0;orthogonalLoop=1;jettySize=auto;html=1;" edge="1" parent="1" source="dCxk-X6XOkriSE8L06hu-7" target="dCxk-X6XOkriSE8L06hu-9">
          <mxGeometry relative="1" as="geometry" />
        </mxCell>
        <mxCell id="dCxk-X6XOkriSE8L06hu-19" style="edgeStyle=orthogonalEdgeStyle;rounded=0;orthogonalLoop=1;jettySize=auto;html=1;exitX=0.5;exitY=1;exitDx=0;exitDy=0;entryX=0.5;entryY=0;entryDx=0;entryDy=0;" edge="1" parent="1" source="dCxk-X6XOkriSE8L06hu-7" target="dCxk-X6XOkriSE8L06hu-8">
          <mxGeometry relative="1" as="geometry" />
        </mxCell>
        <mxCell id="dCxk-X6XOkriSE8L06hu-20" style="edgeStyle=orthogonalEdgeStyle;rounded=0;orthogonalLoop=1;jettySize=auto;html=1;exitX=0.5;exitY=1;exitDx=0;exitDy=0;entryX=0.5;entryY=0;entryDx=0;entryDy=0;" edge="1" parent="1" source="dCxk-X6XOkriSE8L06hu-7" target="dCxk-X6XOkriSE8L06hu-10">
          <mxGeometry relative="1" as="geometry" />
        </mxCell>
        <mxCell id="dCxk-X6XOkriSE8L06hu-7" value="Direccion" style="whiteSpace=wrap;html=1;align=center;" vertex="1" parent="1">
          <mxGeometry x="270" y="560" width="100" height="40" as="geometry" />
        </mxCell>
        <mxCell id="dCxk-X6XOkriSE8L06hu-8" value="Calle" style="whiteSpace=wrap;html=1;align=center;" vertex="1" parent="1">
          <mxGeometry x="150" y="640" width="100" height="40" as="geometry" />
        </mxCell>
        <mxCell id="dCxk-X6XOkriSE8L06hu-9" value="&lt;div&gt;Codigo Postal&lt;/div&gt;" style="whiteSpace=wrap;html=1;align=center;" vertex="1" parent="1">
          <mxGeometry x="270" y="640" width="100" height="40" as="geometry" />
        </mxCell>
        <mxCell id="dCxk-X6XOkriSE8L06hu-10" value="Poblacion" style="whiteSpace=wrap;html=1;align=center;" vertex="1" parent="1">
          <mxGeometry x="390" y="640" width="100" height="40" as="geometry" />
        </mxCell>
        <mxCell id="dCxk-X6XOkriSE8L06hu-11" value="Precio" style="whiteSpace=wrap;html=1;align=center;" vertex="1" parent="1">
          <mxGeometry x="550" y="560" width="100" height="40" as="geometry" />
        </mxCell>
      </root>
    </mxGraphModel>
  </diagram>
</mxfile>
